<?xml version="1.0" standalone="no"?><svg xmlns="http://www.w3.org/2000/svg" viewBox="0 0 1440 320"><path fill="#FFF1BD" fill-opacity="1" d="M0,160L34.3,160C68.6,160,137,160,206,176C274.3,192,343,224,411,224C480,224,549,192,617,186.7C685.7,181,754,203,823,192C891.4,181,960,139,1029,106.7C1097.1,75,1166,53,1234,74.7C1302.9,96,1371,160,1406,192L1440,224L1440,0L1405.7,0C1371.4,0,1303,0,1234,0C1165.7,0,1097,0,1029,0C960,0,891,0,823,0C754.3,0,686,0,617,0C548.6,0,480,0,411,0C342.9,0,274,0,206,0C137.1,0,69,0,34,0L0,0Z"></path></svg>